<svg width="256px" height="128px" viewBox="0 0 810 500" version="1.1" xmlns="http://www.w3.org/2000/svg"><path d=" M 405.58 7.92 C 406.53 18.29 410.71 28.07 416.12 36.86 C 423.75 49.19 433.50 60.06 443.83 70.19 C 470.74 96.24 501.54 117.85 532.92 138.14 C 564.92 158.50 597.86 177.45 631.71 194.58 C 635.62 215.12 635.56 236.26 633.64 257.03 C 629.74 296.03 616.41 334.10 594.84 366.85 C 584.56 382.52 572.48 397.00 559.07 410.08 C 557.97 411.67 556.17 411.43 554.51 411.11 C 565.40 398.62 576.10 385.86 584.58 371.57 C 596.58 351.75 605.38 329.37 606.16 306.00 C 606.93 285.31 599.94 264.46 586.64 248.56 C 584.38 245.80 582.11 242.91 578.98 241.10 C 521.20 207.06 463.46 172.96 405.72 138.88 C 349.26 171.99 292.98 205.40 236.57 238.59 C 233.69 240.28 230.61 241.80 228.33 244.31 C 218.19 255.24 210.67 268.70 207.36 283.27 C 202.98 301.89 205.33 321.53 211.48 339.47 C 219.42 362.66 233.10 383.48 248.94 402.02 C 251.40 405.00 254.34 407.62 256.36 410.95 C 255.77 411.11 254.58 411.42 253.99 411.58 C 241.69 400.38 230.98 387.45 221.27 373.96 C 198.27 341.56 183.51 303.44 178.45 264.05 C 175.58 241.04 175.34 217.53 179.51 194.67 C 213.05 177.58 245.76 158.87 277.52 138.67 C 307.98 119.05 337.84 98.14 364.27 73.26 C 375.57 62.49 386.28 50.92 394.64 37.68 C 400.22 28.66 404.88 18.65 405.58 7.92 Z" /><path d=" M 399.05 191.03 C 402.39 185.51 404.87 179.37 405.46 172.89 C 406.19 181.12 410.03 188.67 414.66 195.36 C 426.34 211.78 442.07 224.75 457.97 236.89 C 488.04 259.20 520.47 278.20 553.74 295.32 C 559.89 331.77 551.93 370.25 532.78 401.79 C 525.50 413.79 516.64 424.81 506.64 434.65 C 505.74 435.78 504.29 435.92 502.97 436.10 C 513.05 424.49 522.74 412.26 529.06 398.12 C 536.76 381.66 539.99 362.04 533.19 344.72 C 530.08 337.25 525.81 329.86 519.47 324.70 C 481.57 302.17 443.48 279.97 405.62 257.39 C 367.53 279.67 329.57 302.17 291.58 324.62 C 280.03 334.49 274.10 350.00 273.93 365.02 C 274.15 384.19 282.37 402.31 293.25 417.74 C 297.64 424.36 303.18 430.08 308.05 436.32 C 304.37 435.90 302.36 432.53 299.91 430.17 C 281.29 410.65 267.37 386.53 260.53 360.38 C 254.99 339.25 253.44 316.92 257.15 295.34 C 286.42 280.34 314.91 263.74 341.90 244.92 C 353.74 236.58 365.25 227.74 375.94 217.96 C 384.58 209.87 392.92 201.24 399.05 191.03 Z" /><path d=" M 125.92 264.90 C 133.24 261.13 140.51 257.25 147.44 252.78 C 149.95 266.42 153.13 279.96 157.53 293.12 C 132.82 304.20 109.11 317.41 86.30 331.99 C 96.54 363.31 108.27 394.25 123.13 423.70 C 129.60 436.22 136.57 448.62 145.58 459.52 C 153.27 468.77 163.46 475.57 174.15 480.89 C 155.81 477.33 137.54 473.39 119.21 469.76 C 117.60 469.23 115.31 469.32 114.66 467.42 C 107.53 452.51 100.55 437.53 93.44 422.60 C 82.84 399.85 71.74 377.32 61.53 354.39 C 54.67 339.97 46.24 326.23 35.81 314.11 C 27.66 304.80 18.40 295.96 6.72 291.32 C 27.92 297.82 50.71 294.42 71.61 288.38 C 90.63 282.86 108.30 273.77 125.92 264.90 Z" /><path d=" M 664.88 252.79 C 679.16 261.83 694.53 268.95 709.67 276.37 C 732.60 287.11 757.50 295.06 783.05 294.80 C 790.21 294.84 797.25 293.41 804.26 292.08 C 792.51 296.74 783.48 306.06 775.38 315.44 C 762.94 330.23 753.47 347.30 746.02 365.08 C 731.02 397.00 715.89 428.86 700.84 460.76 C 699.53 463.41 698.56 466.28 696.80 468.68 C 695.29 469.35 693.64 469.63 692.05 469.99 C 674.13 473.52 656.27 477.35 638.35 480.89 C 647.80 475.96 656.99 470.18 664.28 462.31 C 674.80 450.55 682.52 436.65 689.70 422.69 C 704.31 393.54 715.92 362.96 726.00 331.98 C 703.20 317.39 679.47 304.20 654.77 293.10 C 659.22 279.96 662.35 266.42 664.88 252.79 Z" /><path d=" M 405.38 287.45 C 406.56 294.72 410.61 301.10 415.30 306.62 C 424.55 317.45 435.96 326.18 447.53 334.38 C 464.56 346.24 482.55 356.70 500.97 366.25 C 502.57 366.73 502.61 368.50 502.86 369.87 C 507.12 402.19 495.56 436.29 472.04 458.95 C 471.37 459.47 470.02 460.52 469.35 461.04 C 471.49 457.11 474.79 454.02 477.38 450.41 C 484.93 440.10 491.03 428.01 491.33 415.00 C 491.69 402.70 485.72 389.30 474.01 384.11 C 451.73 371.02 429.51 357.82 407.22 344.74 C 405.90 343.68 404.32 344.21 403.08 345.06 C 381.30 357.96 359.49 370.81 337.69 383.67 C 334.81 385.43 331.65 386.85 329.20 389.23 C 322.78 396.10 319.26 405.56 319.59 414.97 C 319.88 427.55 325.61 439.31 332.78 449.38 C 335.53 453.43 339.22 456.76 341.62 461.06 C 336.63 457.57 332.90 452.66 329.12 447.97 C 311.50 425.31 303.96 395.20 308.56 366.90 C 328.37 356.85 347.58 345.56 365.72 332.73 C 375.52 325.69 385.08 318.19 393.28 309.30 C 398.85 303.08 404.31 296.00 405.38 287.45 Z" /><path d=" M 114.81 341.42 C 134.00 346.09 153.71 339.46 171.04 331.40 C 175.40 337.87 179.96 344.21 184.82 350.31 C 176.44 354.45 168.16 358.79 160.05 363.44 C 166.07 377.90 172.82 392.06 180.12 405.91 C 185.52 415.93 191.21 425.87 198.28 434.82 C 202.49 440.18 207.81 444.52 213.20 448.66 C 201.14 446.04 189.11 443.23 177.08 440.47 C 174.80 440.17 173.83 437.90 172.92 436.10 C 164.84 419.23 156.65 402.40 148.53 385.54 C 143.43 374.69 137.81 363.99 130.36 354.55 C 126.09 349.25 121.23 344.06 114.81 341.42 Z" /><path d=" M 627.48 350.29 C 632.37 344.22 636.94 337.91 641.22 331.40 C 658.75 339.53 678.71 346.19 698.11 341.32 C 691.92 343.43 687.24 348.23 683.13 353.11 C 674.55 363.49 668.46 375.60 662.75 387.72 C 654.93 403.92 647.07 420.09 639.30 436.31 C 638.39 438.07 637.42 440.29 635.16 440.50 C 623.07 443.29 610.96 445.99 598.87 448.79 C 605.33 444.05 611.41 438.67 616.12 432.14 C 625.35 419.51 632.57 405.57 639.50 391.59 C 643.97 382.28 648.44 372.97 652.24 363.37 C 644.09 358.82 635.86 354.41 627.48 350.29 Z" /></svg>
