<svg xmlns="http://www.w3.org/2000/svg" width="1101.258" height="935.152" viewBox="0 0 1032.429 876.705"><g transform="translate(-8.39 -169.652)"><ellipse cx="446.372" cy="396.92" fill-rule="evenodd" rx="83.055" ry="84.065"/><ellipse cx="240.515" cy="535.802" fill-rule="evenodd" rx="88.02" ry="88.455"/><ellipse cx="574.89" cy="780.791" fill-rule="evenodd" rx="88.02" ry="88.455"/><ellipse cx="318.333" cy="780.809" fill-rule="evenodd" rx="88.02" ry="88.455"/><ellipse cx="652.693" cy="535.887" fill-rule="evenodd" rx="88.02" ry="88.455"/><circle cx="446.679" cy="608.255" r="49.264"/><path d="M900.066 169.652l-453.752.366c-241.395 0-437.923 196.665-437.923 438.17 0 241.504 196.528 438.17 437.923 438.17 175.897 0 328.98-103.663 398.555-253.763l188.613-439.451c8.348-19.449 7.295-33.962 7.295-45.31 0-80.355-63.455-138.182-140.71-138.182zm-19.494 58.223c50.714 0 91.123 40.422 91.123 91.201 0 50.78-40.409 91.201-91.123 91.201-50.714 0-91.125-40.422-91.125-91.2 0-50.78 40.411-91.202 91.125-91.202zm-434.258 22.633c197.869 0 357.434 159.648 357.434 357.68 0 198.03-159.565 357.68-357.434 357.68-197.868 0-357.433-159.65-357.433-357.68 0-198.032 159.565-357.68 357.433-357.68z" color="#000" font-family="sans-serif" font-weight="400" overflow="visible" style="line-height:normal;text-indent:0;text-align:start;text-decoration-line:none;text-decoration-style:solid;text-decoration-color:#000;text-transform:none;block-progression:tb;isolation:auto;mix-blend-mode:normal" white-space="normal"/></g></svg>